<?xml version="1.0" encoding="utf-8"?><svg xmlns="http://www.w3.org/2000/svg" xmlns:xlink="http://www.w3.org/1999/xlink" width="1720" height="1257" preserveAspectRatio="xMidYMid" viewBox="0 0 1720 1257" style="z-index:1;margin-right:-2px;display:block;background-repeat-y:initial;background-repeat-x:initial;background-color:rgb(241, 242, 243);animation-play-state:paused" ><g transform="" style="animation-play-state:paused" ><linearGradient id="lg-0.7464114950541689" x1="0" x2="1" y1="0" y2="0" style="animation-play-state:paused" ><stop stop-color="#0051a2" offset="0" style="animation-play-state:paused" ></stop>

  
<stop stop-color="#89bff8" offset="1" style="animation-play-state:paused" ></stop></linearGradient>
<path d="M 0 0 M 0 730.281 Q 172 737.464 344 728.667 T 688 867.985 T 1032 863.905 T 1376 968.327 T 1720 948.066 L 1720 283.992 Q 1548 363.57 1376 361.061 T 1032 352.174 T 688 381.999 T 344 511.829 T 0 490.01 Z" fill="url(#lg-0.7464114950541689)" opacity="0.4" style="opacity:0.4;animation-play-state:paused" ></path>
<path d="M 0 0 M 0 725.257 Q 172 725.924 344 719.601 T 688 775.953 T 1032 908.812 T 1376 916.506 T 1720 930.775 L 1720 285.978 Q 1548 335.379 1376 329.846 T 1032 368.287 T 688 462.352 T 344 454.929 T 0 496.955 Z" fill="url(#lg-0.7464114950541689)" opacity="0.4" style="opacity:0.4;animation-play-state:paused" ></path>
<path d="M 0 0 M 0 724.986 Q 172 757.866 344 751.937 T 688 854.184 T 1032 884.263 T 1376 932.57 T 1720 1007.87 L 1720 225.253 Q 1548 355.058 1376 349.358 T 1032 371.063 T 688 395.451 T 344 479.53 T 0 555.04 Z" fill="url(#lg-0.7464114950541689)" opacity="0.4" style="opacity:0.4;animation-play-state:paused" ></path>
<path d="M 0 0 M 0 752.361 Q 172 726.231 344 718.723 T 688 779.06 T 1032 936.167 T 1376 990.822 T 1720 972.728 L 1720 230.598 Q 1548 392.729 1376 388.479 T 1032 375.493 T 688 428.852 T 344 531.301 T 0 515.065 Z" fill="url(#lg-0.7464114950541689)" opacity="0.4" style="opacity:0.4;animation-play-state:paused" ></path></g></svg>