<?xml version="1.0" encoding="utf-8"?><svg xmlns="http://www.w3.org/2000/svg" xmlns:xlink="http://www.w3.org/1999/xlink" width="1753" height="1257" preserveAspectRatio="xMidYMid" viewBox="0 0 1753 1257" style="z-index:1;margin-right:-2px;display:block;background-repeat-y:initial;background-repeat-x:initial;background-color:rgb(241, 242, 243);animation-play-state:paused" ><g transform="" style="animation-play-state:paused" ><linearGradient id="lg-0.5669637926254489" x1="0" x2="1" y1="0" y2="0" style="animation-play-state:paused" ><stop stop-color="#93dbe9" offset="0" style="animation-play-state:paused" ></stop>

  
<stop stop-color="#096ab6" offset="1" style="animation-play-state:paused" ></stop></linearGradient>
<path d="M 0 0 L 0 1037.19 Q 175.3 850.01 350.6 822.081 T 701.2 558.023 T 1051.8 454.12 T 1402.4 230.468 T 1753 91.2859 L 1753 0 Z" fill="url(#lg-0.5669637926254489)" opacity="0.4" style="opacity:0.4;animation-play-state:paused" ></path>
<path d="M 0 0 L 0 1038.31 Q 175.3 943.321 350.6 917.201 T 701.2 683.504 T 1051.8 469.933 T 1402.4 335.293 T 1753 26.1752 L 1753 0 Z" fill="url(#lg-0.5669637926254489)" opacity="0.4" style="opacity:0.4;animation-play-state:paused" ></path>
<path d="M 0 0 L 0 1027.53 Q 175.3 832.328 350.6 786.312 T 701.2 733.456 T 1051.8 482.264 T 1402.4 207.056 T 1753 -111.608 L 1753 0 Z" fill="url(#lg-0.5669637926254489)" opacity="0.4" style="opacity:0.4;animation-play-state:paused" ></path>
<path d="M 0 0 L 0 1091.75 Q 175.3 863.223 350.6 833.795 T 701.2 576.441 T 1051.8 337.981 T 1402.4 66.0728 T 1753 -54.4011 L 1753 0 Z" fill="url(#lg-0.5669637926254489)" opacity="0.4" style="opacity:0.4;animation-play-state:paused" ></path>
<path d="M 0 0 L 0 1025 Q 175.3 821.75 350.6 796.314 T 701.2 696.373 T 1051.8 454.806 T 1402.4 88.1329 T 1753 -39.3511 L 1753 0 Z" fill="url(#lg-0.5669637926254489)" opacity="0.4" style="opacity:0.4;animation-play-state:paused" ></path></g></svg>